# xmcd
#
# Track frame offsets: 
#        150
#        20990
#        46556
#        76934
#        98245
#        127069
#        146217
#        165650
#        187953
#        206029
#
# Disc length: 3098 seconds
#
# Revision: 0
# Processed by: cddbd v1.5.2PL0 Copyright (c) Steve Scherf et al.
# Submitted via: ExactAudioCopy v1.0b3
#
DISCID=890c180a
DTITLE=Che Linh - Noi Buon The Ky
DYEAR=2000
DGENRE=
TTITLE0=Phuong troi xu la
TTITLE1=Xin tra toi ve
TTITLE2=Chiec bong ben duong
TTITLE3=Chuyen tau que huong
TTITLE4=Nguoi tinh toi oi
TTITLE5=Hoa van no tren duong que huong
TTITLE6=Em bao nhieu tuoi
TTITLE7=Gia tu Da Lat
TTITLE8=Chuyen hop tan
TTITLE9=Che Linh, Thuy Trang - Bai ca mong cho
EXTD=
EXTT0=
EXTT1=
EXTT2=
EXTT3=
EXTT4=
EXTT5=
EXTT6=
EXTT7=
EXTT8=
EXTT9=
PLAYORDER=
